<?xml version="1.0" encoding="utf-8"?>
<!-- Generator: Adobe Illustrator 27.3.1, SVG Export Plug-In . SVG Version: 6.00 Build 0)  -->
<svg version="1.1" id="Layer_1" xmlns="http://www.w3.org/2000/svg" xmlns:xlink="http://www.w3.org/1999/xlink" x="0px" y="0px"
	 viewBox="0 0 639.9 639.9" style="enable-background:new 0 0 639.9 639.9;" xml:space="preserve">
<style type="text/css">
	.st0{fill:#FCF8D9;}
	.st1{fill:#0075F2;}
</style>
<rect y="0" class="st0" width="639.9" height="639.9"/>
<path class="st1" d="M549.93,155.54c-6.82-13.22-18.61-22.56-35.05-27.73c-6.33-2-12.57-3-18.51-3c-13.83,0-33.18,5.3-46.82,30.54
	c-7.11,13.15-10.98,28.67-14.09,41.16l-0.38,1.46c-1.16,4.63-2.14,10.14-2.94,16.21c-23.24-16.41-51.35-24.37-81.75-17.25
	c-52.12,12.19-82.68,66.07-84.13,116.87c-24.85-35.23-69.64-57.7-112.03-45.99c-62.55,17.26-81.08,94.12-64.86,150.38
	c16.22,56.32,72.84,111.66,135.09,93.32c41.65-12.28,67.69-54.19,70.41-96.74c25.78,36.61,71.7,64.6,117.61,53.31
	c35.93-8.83,60.01-35.26,72.8-67.4c7.4-2.59,13.6-7.34,18.06-13.93c8.17-12.08,8.24-27.68,4.66-37.77l-0.1-0.32
	c-1.09-3.06-2.8-7.91-6.04-12.83c3.71-3.58,6.52-8.08,8.08-13.29c7.65-25.33,19.8-54.73,28.69-76.22c5-12.06,8.6-20.78,10.38-26.3
	C555.16,201.1,560.82,176.67,549.93,155.54z M259.64,451.22c-7.75,19.38-24.2,35.64-44.18,41.94c-20.33,6.39-43.03-0.83-59.81-12.25
	c-1.29-0.9-2.58-1.84-3.84-2.81c-4.03-3.07-1.52-9.36,3.74-9.34c4.47,0,9.14-0.55,13.57-1.9c19.29-5.87,36.45-25.86,33.83-47.37
	c-0.45-3.63-4.69-5.72-8.18-3.82c-2.71,1.48-5.81,2.88-8.36,3.29c-11.6,1.81-23.01-4.13-27.3-14.24c-2.61-6.17-2.3-12.7,0.19-18.38
	c1.1-2.48-0.91-5.08-3.74-4.92c-3.49,0.22-7.08,0.91-10.54,1.81c-12.24,3.16-27.57,14.32-30.95,27.34
	c-0.64,2.48-3.48,3.71-5.14,0.01c-10.09-22.48-4.63-54.31,4.63-75.76c7.99-18.49,23.59-36.65,44.18-41.93
	c20.35-5.21,42.94-0.09,59.81,12.25c23.17,16.93,38.23,40.65,45.55,66.04C270.4,396.54,270.28,424.62,259.64,451.22z M451.32,403.18
	c-9.57,19.7-27.81,36.81-49.51,42.52c-21.97,5.76-45.75-3.1-62.97-16.21c-1.33-1.01-2.65-2.1-3.94-3.19
	c-4.1-3.49-1.07-10.09,4.55-9.8c4.75,0.25,9.75-0.12,14.55-1.32c20.93-5.27,40.33-25.75,38.8-48.88c-0.25-3.91-4.65-6.36-8.49-4.5
	c-2.97,1.43-6.34,2.77-9.08,3.07c-12.47,1.33-24.27-5.6-28.24-16.63c-2.42-6.73-1.71-13.7,1.27-19.64c1.32-2.58-0.68-5.49-3.68-5.46
	c-3.74,0.04-7.53,0.49-11.34,1.38c-14.79,3.45-29.69,12.95-34.57,27.63c-0.85,2.56-3.92,3.78-5.47-0.26
	c-9.44-24.6-1.74-58.32,9.38-80.72c9.59-19.33,27.21-37.93,49.51-42.52c21.93-4.52,45.78,2.74,62.97,16.21
	c5.1,4,9.89,8.54,14.29,13.53c-0.16,23.82,1.67,46.68,5.5,57.16c1.88,5.14,4.78,9.63,8.27,13.48c-3.4,2.4-6.66,5.4-9.37,9.21
	c-6,8.37-8.1,18.77-5.89,29.25c3.42,16.36,12.06,27.47,24.92,32.5C452.32,401.07,451.83,402.13,451.32,403.18z M480.06,370.99
	c-1.67,2.45-4.3,3.72-8.05,3.88c-0.61,0.03-1.22,0.04-1.81,0.04c-3.82,0-6.82-0.46-9.2-2.17c-2.58-1.87-4.37-5.2-5.59-11.01
	c-0.59-2.81-0.19-5.14,1.23-7.13c1.49-2.09,3.91-3.63,6.46-4.71c2.79-1.2,5.73-1.85,7.72-2.1c0.46-0.06,0.91-0.09,1.35-0.09
	c5.18,0,7.15,4.46,9.21,10.28l0.12,0.33C482.34,360.75,482.79,366.94,480.06,370.99z M522.27,211.34
	c-1.45,4.46-5.05,13.18-9.63,24.23c-6.95,16.81-15.87,38.39-23.27,59.54c-2.3,6.53-4.45,13.02-6.34,19.32
	c-0.49,1.61-2.13,2.43-4.88,2.43c-6.08,0-14.5-4.5-16.86-10.96c-3.16-8.65-4.66-39.98-3.13-67.65c0.71-12.82,2.07-24.84,4.21-33.45
	l0.38-1.48c5.6-22.45,12.57-50.38,33.63-50.38c3.07,0,6.46,0.56,10.06,1.71c9.14,2.87,15.19,7.39,18.49,13.79
	C531.06,180.32,526.73,197.6,522.27,211.34z"/>
</svg>
