<?xml version="1.0" encoding="utf-8"?>
<!-- Generator: Adobe Illustrator 27.3.1, SVG Export Plug-In . SVG Version: 6.00 Build 0)  -->
<svg version="1.1" id="Layer_1" xmlns="http://www.w3.org/2000/svg" xmlns:xlink="http://www.w3.org/1999/xlink" x="0px" y="0px"
	 viewBox="0 0 1280 639.9" style="enable-background:new 0 0 1280 639.9;" xml:space="preserve">
<style type="text/css">
	.st0{fill:#FCF8D9;}
	.st1{fill:#0075F2;}
</style>
<rect class="st0" width="1280" height="639.9"/>
<path class="st1" d="M690.78,320.91c2.9,20.23-13.78,33.76-33.56,30.35c-15.54-2.68-32.98-12.94-35.28-30.13
	c-1.31-9.77,3.84-26.59,15.5-25.94c8.48,0.48,12.6,14.03,20.13,12.48c3.59-0.72,1.11-5.23-5.26-11.16
	c-13.17-12.05-22.38-30.22-22.99-47.67c-0.57-16.24,10.66-32.67,28.42-31.03c12.88,1.18,22.62,8.38,24.52,21.38
	c0.95,6.53-2.32,35.91-14.99,25.88c-9.59-7.6-11.09,5.69-1.64,15.06C676.33,290.73,688.58,305.56,690.78,320.91z"/>
<path class="st1" d="M716.12,303.8c0.88,10.13,10.19,18.49,12.04,28.42c1.95,10.47-6.6,21.98-17.53,23.08
	c-10.74,1.09-18.47-8.9-18.21-16.71c0.47-14.29,12.52-25.4,13.57-39.57c0.79-10.59-3.63-20.96-4.06-31.51
	c-0.41-10.05,5.53-12.58,9-11.47c3.97,1.27,7.69,7.47,7.56,15.29C718.31,281.95,715.23,293.51,716.12,303.8z M699.86,235.96
	c-0.14-6.74,5.01-8.6,10.27-6.37c5.26,2.23,8.74,7.62,8.67,13.77c-0.08,6.15-3.62,10.63-8.66,8.95
	C705.09,250.63,700.01,242.7,699.86,235.96z"/>
<path class="st1" d="M769.01,294.52c0.62,11.66,5.13,21.75,12.71,30.72c11.57,13.69-13.7,20.3-22.35,22.37
	c-25.15,6.02-39.41-34.05-18.11-34.93c5.58-0.23,8.85,4.17,12.12,7.11c5.48,4.77,8.01,4.78,7.08-4.79c-0.38-3.86-0.95-5.17-4.26-4.3
	c-1.96,0.51-4.23,0.81-6.57,0.73c-24.22-0.8-19.25-46.46,0.4-39C759.4,275.99,768.47,284.27,769.01,294.52z M749.95,283.89
	c-7.64-1.78-6.77,10.92-0.1,11.64C756.52,296.26,757.59,285.67,749.95,283.89z"/>
<path class="st1" d="M838.57,301.21c3.79,11.99,13,20.37,20.78,29.41c4.53,5.26,0.16,13.62-9.17,13.62
	c-11.3,0-19.51-7.24-23.31-12.28c-6.14-8.14,3.72-12.29,3.66-22.45c-0.08-13.92-32.53-11.52-28.25,4.45
	c2.85,6.5,14.85,9.42,20.7,15.7c6.42,6.9,1.83,14.58-9.87,14.58c-11.31,0-19.34-7.63-23.18-12.28c-7.41-8.96-0.73-20.42,1.43-29.54
	c1.53-6.5-11.17-9.82-11.17-17.17c0-6.1,5.27-8.31,8.96-8.55c5.93-0.39,8.82,3.84,10.79,9.35c0.65,2.28,2.23,2.72,4.08-0.27
	c3.44-5.95,8.78-11.39,15.21-12.26C834.87,271.38,835.37,291.09,838.57,301.21z"/>
<path class="st1" d="M918.76,328.62c6.42,6.73,1.47,15.62-10.23,15.62c-6.2,0-9.31,0-15.51,0c-12.65-0.44-31.87-10.48-35.9-21.02
	c-5.22-13.66,20.57-26.45,32.76-19.24c0,0,2.85-6.83,2.14-14.28c-0.79-8.26-7.8-7.65-12.57,4.38c-6.86,10.55-17.95-1.53-17.76-9.97
	c0.26-11.59,12.46-15.67,22.37-15.9c12.14-0.28,19.51,10.25,19.5,21.49C903.55,305.74,907.31,316.62,918.76,328.62z M891.48,317.98
	c-4.9-6.06-14.78-5.71-14.74-0.86c0.04,4.36,7.4,6.82,11.47,6.82C894.26,323.94,893.35,320.28,891.48,317.98z"/>
<path class="st1" d="M959.12,326.61c10.19,8.93-1.3,18-10.64,17.64c-9.96-0.39-19.28-7.06-25.26-14.29
	c-9.59-11.58,4.41-33.08,8.27-44.86c3.34-10.2-0.13-20.39,0.76-30.56c0.69-7.91,6.01-11.47,12.24-11.9
	c7.51-0.52,10.05,4.76,8.85,10.6c-2.53,12.29-11.33,23.68-12.65,36.3C939.02,305.55,947.84,316.72,959.12,326.61z"/>
<path class="st1" d="M650.23,425.68c4.56,11.49,1.69,33.28-16.59,24.91c-14.75-6.75-31.08-21.76-40.66-36.17
	c-2.78-4.19-15.2-31.74,1.42-24.34c7.28,3.24,11.59,16.06,18.41,16.32c3.26,0.15,0.79-5.08-5.26-11.27
	c-9.25-9.17-21-21.25-23.07-33.52c-2.38-14.07,16.84-19.76,28.55-17.67c11.48,2.06,27.94,6.6,30.12,19.43
	c1.79,10.5-9.4,21-19.97,14.4c-10.67-6.66-12.18,1.32-2.18,8.96C634.2,396.83,644.08,410.18,650.23,425.68z"/>
<path class="st1" d="M690.28,468.37c-17.81-0.43-35.83-30.22-37.06-47.31c-1.77-24.58,23.89-43.7,46.19-44.46
	c11.01-0.37,17.1,9.12,13.81,19.38c-4.62,14.46-18.62,26.07-34.65,23.39c-2.58-0.33-3.91,1.19-2.1,4.32c2,3.45,5.57,6.37,9.66,5.65
	c10.32-1.8,18.96-19.79,27.44-16C727.83,419.71,708.33,468.8,690.28,468.37z M683.45,407.53c7.19,0.42,12.96-2.37,13.52-6.03
	c0.57-3.66-3.27-6.66-9.05-5.55C675.84,398.54,675.8,407.08,683.45,407.53z"/>
<path class="st1" d="M780.42,379.58c4.84,12.84,11.22,25.07,11.89,38.49c0.47,9.55-7.4,19.52-17.54,21.27
	c-11.78,2.03-18.32-4.66-18-13.11c0.53-13.8,13.94-25.56,14.42-38.11c0.49-12.85-31.85,1.37-28.85,16.41
	c1.83,7.03,11.67,8,12.32,18.53c0.78,12.5-6.31,24.98-17.4,30.9c-10.85,5.79-17.26-1.48-17.3-10.24
	c-0.07-15.99,8.19-31.68,12.41-46.71c2.23-7.94-9.32-6.23-7.5-14.54c1.51-6.89,7.27-10.42,11.01-11.38
	c6.01-1.55,7.92,2.08,8.49,6.53c0.08,1.89,1.54,1.69,4.1-1.42c4.86-6.14,11.24-11.44,17.88-12.77
	C783.55,360,777.89,372.86,780.42,379.58z"/>
<path class="st1" d="M827.78,381.56c5.17,13.86,13.6,27.32,13.88,42c0.23,12.1-11.71,20.12-23.48,18.21
	c-12.2-1.98-22.45-12.41-22.39-24.64c0.06-13.08,6.79-27.15,14.84-37.77c1.78-2.55,0.99-3.93-4.26-4.39
	c-3.4-0.3-5.58-2.78-4.65-5.42c0.89-2.53,4.45-4.63,7.71-4.49c6.09,0.26,6.9-1.87,6.36-5.6c-0.46-2-0.83-4.06-0.58-6.44
	c0.56-5.51,4.37-8.98,9.09-8.98c4.87,0,9.71,3.37,9.34,9.12c-0.16,2.49-0.97,4.68-2.15,6.77c-1.88,3.91-2.26,6.22,3.96,6.64
	c3.34,0.22,5.88,3.12,5.48,6.24c-0.42,3.27-3.76,5.63-7.28,5.19C828.07,377.3,826.85,378.5,827.78,381.56z"/>
<path class="st1" d="M896.45,398.24c-9.24-1.55-12.25-12.62-19.69-6.82c-3.04,2.45-6.06,8.33-0.5,15.59
	c4.02,5.09,13.62,10.19,15.04,19.65c1.99,13.3-10.77,24.28-23.83,22.73c-11.03-1.31-22.08-10.54-22.17-21.69
	c-0.12-14.51,11.77-24.99,14.92-38.92c1.6-7.07-13.11-11.53-12.46-18.43c0.54-5.73,6.62-7.45,10.75-7.3
	c6.36,0.24,9.5,4.67,11.73,9.84c1.48,3.34,2.58,3.12,4.94,0.75c5.32-4.87,11.85-10.04,18.57-10.04c9.59,0,16.37,5.98,18.06,13.33
	C914.1,386.81,907.9,400.16,896.45,398.24z"/>
<path class="st1" d="M982.26,386.51c-5.74,5.34-20.58,8.89-20.98,17.22c-0.82,16.89,9.43,35.7,10.04,54.02
	c0.37,11.05-5.23,28.83-19.48,20.31c-0.34-0.19-0.51-0.29-0.85-0.48c-12.03-6.56-19.4-21.66-19.3-34.32
	c0.12-13.57,11.14-27.32,10.41-39.81c-0.46-7.99-15.67-11.78-21.39-16.93c-10.65-9.61-2.94-22.8,10.25-22.9
	c10.8-0.07,15.87,6.55,14.88,16.41c-0.92,9.19,2.77,12.28,5.78,12.28c3,0,6.65-3.09,5.1-12.28c-1.66-9.86,3.05-16.59,13.75-16.41
	C982.58,363.82,993.23,376.31,982.26,386.51z"/>
<path class="st1" d="M610.88,182.05c-4.71-9.13-12.85-15.58-24.2-19.15c-4.37-1.38-8.68-2.07-12.78-2.07
	c-9.55,0-22.91,3.66-32.33,21.09c-4.91,9.08-7.58,19.8-9.73,28.42l-0.26,1.01c-0.8,3.2-1.48,7-2.03,11.19
	c-16.05-11.33-35.46-16.83-56.45-11.91c-35.99,8.42-57.09,45.62-58.09,80.7c-17.16-24.33-48.09-39.84-77.36-31.76
	c-43.19,11.92-55.99,64.99-44.79,103.84c11.2,38.89,50.3,77.1,93.28,64.44c28.76-8.48,46.74-37.42,48.62-66.8
	c17.8,25.28,49.51,44.61,81.21,36.81c24.81-6.1,41.44-24.35,50.27-46.54c5.11-1.79,9.39-5.07,12.47-9.62
	c5.64-8.34,5.69-19.11,3.22-26.08l-0.07-0.22c-0.75-2.11-1.93-5.46-4.17-8.86c2.56-2.47,4.5-5.58,5.58-9.18
	c5.28-17.49,13.67-37.79,19.81-52.63c3.45-8.33,5.94-14.35,7.17-18.16C614.49,213.51,618.4,196.64,610.88,182.05z M410.43,386.22
	c-5.35,13.38-16.71,24.61-30.51,28.96c-14.04,4.41-29.71-0.57-41.3-8.46c-0.89-0.62-1.78-1.27-2.65-1.94
	c-2.78-2.12-1.05-6.46,2.58-6.45c3.09,0,6.31-0.38,9.37-1.31c13.32-4.05,25.17-17.86,23.36-32.71c-0.31-2.51-3.24-3.95-5.65-2.64
	c-1.87,1.02-4.01,1.99-5.77,2.27c-8.01,1.25-15.89-2.85-18.85-9.83c-1.8-4.26-1.59-8.77,0.13-12.69c0.76-1.71-0.63-3.51-2.58-3.4
	c-2.41,0.15-4.89,0.63-7.28,1.25c-8.45,2.18-19.04,9.89-21.37,18.88c-0.44,1.71-2.4,2.56-3.55,0.01c-6.97-15.52-3.2-37.5,3.2-52.31
	c5.52-12.77,16.29-25.31,30.51-28.95c14.05-3.6,29.65-0.06,41.3,8.46c16,11.69,26.4,28.07,31.45,45.6
	C417.86,348.46,417.78,367.85,410.43,386.22z M542.79,353.05c-6.61,13.6-19.2,25.42-34.19,29.36c-15.17,3.98-31.59-2.14-43.48-11.19
	c-0.92-0.7-1.83-1.45-2.72-2.2c-2.83-2.41-0.74-6.97,3.14-6.77c3.28,0.17,6.73-0.08,10.05-0.91c14.45-3.64,27.85-17.78,26.79-33.75
	c-0.17-2.7-3.21-4.39-5.86-3.11c-2.05,0.99-4.38,1.91-6.27,2.12c-8.61,0.92-16.76-3.87-19.5-11.48c-1.67-4.65-1.18-9.46,0.88-13.56
	c0.91-1.78-0.47-3.79-2.54-3.77c-2.58,0.03-5.2,0.34-7.83,0.95c-10.21,2.38-20.5,8.94-23.87,19.08c-0.59,1.77-2.71,2.61-3.78-0.18
	c-6.52-16.99-1.2-40.27,6.48-55.74c6.62-13.35,18.79-26.19,34.19-29.36c15.14-3.12,31.61,1.89,43.48,11.19
	c3.52,2.76,6.83,5.9,9.87,9.34c-0.11,16.45,1.15,32.23,3.8,39.47c1.3,3.55,3.3,6.65,5.71,9.31c-2.35,1.66-4.6,3.73-6.47,6.36
	c-4.14,5.78-5.59,12.96-4.07,20.2c2.36,11.3,8.33,18.97,17.21,22.44C543.48,351.59,543.14,352.32,542.79,353.05z M562.63,330.82
	c-1.15,1.69-2.97,2.57-5.56,2.68c-0.42,0.02-0.84,0.03-1.25,0.03c-2.64,0-4.71-0.32-6.35-1.5c-1.78-1.29-3.02-3.59-3.86-7.6
	c-0.41-1.94-0.13-3.55,0.85-4.92c1.03-1.44,2.7-2.51,4.46-3.25c1.93-0.83,3.96-1.28,5.33-1.45c0.32-0.04,0.63-0.06,0.93-0.06
	c3.58,0,4.94,3.08,6.36,7.1l0.08,0.23C564.21,323.75,564.52,328.02,562.63,330.82z M591.78,220.58c-1,3.08-3.49,9.1-6.65,16.73
	c-4.8,11.61-10.96,26.51-16.07,41.11c-1.59,4.51-3.07,8.99-4.38,13.34c-0.34,1.11-1.47,1.68-3.37,1.68c-4.2,0-10.01-3.11-11.64-7.57
	c-2.18-5.97-3.22-27.61-2.16-46.71c0.49-8.85,1.43-17.15,2.91-23.1l0.26-1.02c3.87-15.5,8.68-34.79,23.22-34.79
	c2.12,0,4.46,0.39,6.95,1.18c6.31,1.98,10.49,5.1,12.77,9.52C597.85,199.16,594.86,211.09,591.78,220.58z"/>
</svg>
